<?xml version="1.0" encoding="utf-8"?>
<!-- Generator: Adobe Illustrator 23.0.3, SVG Export Plug-In . SVG Version: 6.00 Build 0)  -->
<svg version="1.1" id="Слой_1" xmlns="http://www.w3.org/2000/svg" xmlns:xlink="http://www.w3.org/1999/xlink" x="0px" y="0px"
	 viewBox="0 0 150 25" style="enable-background:new 0 0 150 25;" xml:space="preserve">
<style type="text/css">
	.st0{display:none;}
	.st1{display:inline;fill:none;}
	.st2{display:inline;fill:#179C62;}
	.st3{font-family:'Montserrat-Bold';}
	.st4{font-size:15.7096px;}
	.st5{font-family:'Montserrat-Regular';}
</style>
<g class="st0">
	<path class="st1" d="M0,0"/>
	<path class="st2" d="M147.6,20c0.5,0,1-0.2,1.3-0.5c0.3-0.3,0.5-0.7,0.5-1.2c0-0.5-0.2-0.9-0.5-1.3c-0.3-0.3-0.8-0.5-1.3-0.5
		c-0.5,0-1,0.2-1.3,0.5c-0.3,0.3-0.5,0.7-0.5,1.3c0,0.5,0.2,0.9,0.5,1.2C146.7,19.8,147.1,20,147.6,20z"/>
</g>
<text transform="matrix(1 0 0 1 3 17.2695)"><tspan x="0" y="0" class="st3 st4">MUKASHOV</tspan><tspan x="98.7" y="0" class="st5 st4">BLOG</tspan></text>
</svg>
